#!OML:ASF H:\ColoradoDance\Project 1\Capture day 1\Session 8\male.ASF
:FULLY-SPECIFIED
:DEGREES
145
upperback -2.537900 -3.872760 -0.297809
rfoot -8.072620 -11.524300
lradius 46.674900
lthumb 8.416780 55.384800
rradius 31.933701
lwrist -4.449260
rhand -6.759480 -4.470590
rhumerus -64.079697 -12.255200 -73.740501
lowerneck -2.888120 8.804660 10.971000
lhand -17.848301 25.572500
ltibia 12.618300
head 4.384560 6.175290 -4.820080
rwrist 11.068900
lfingers 7.125020
rtoes -31.034100
lowerback 0.350170 -2.940930 1.008350
rfingers 7.125020
lclavicle -0.000000 -0.000000
upperneck 8.174080 12.596000 -12.274600
rfemur -21.636200 2.912300 -6.517580
thorax -2.889020 -1.942280 -0.756125
rclavicle -0.000000 -0.000000
rtibia 31.480700
lfoot -9.762800 15.623500
lhumerus -30.822701 -34.379398 98.187897
rthumb 19.102100 326.446991
root 13.747400 17.919701 30.917200 191.526001 24.012300 178.621002
ltoes -12.620400
lfemur -9.911980 -12.731000 6.770210
146
upperback -2.515570 -3.311200 0.921123
rfoot -19.158100 -13.020400
lradius 43.774502
lthumb -3.158680 63.225201
rradius 33.266899
lwrist 1.013010
rhand -28.878000 -20.726000
rhumerus -45.590698 1.959620 -46.218498
lowerneck -2.647370 6.141340 10.998500
lhand -29.835600 33.268799
ltibia 30.756701
head 3.164670 4.332720 -5.755080
rwrist 13.321800
lfingers 7.125020
rtoes -24.786800
lowerback 1.981360 -2.743110 6.648760
rfingers 7.125020
lclavicle -0.000000 -0.000000
upperneck 5.416560 8.863540 -14.203000
rfemur -28.228901 -14.545700 -2.298490
thorax -4.050770 -1.795540 -2.573670
rclavicle -0.000000 -0.000000
rtibia 48.096699
lfoot -6.428780 11.002900
lhumerus -25.277500 -8.603590 90.912201
rthumb -2.233900 309.306000
root 14.665800 17.333599 32.121700 193.992004 7.307540 176.042007
ltoes 0.144972
lfemur -28.238701 6.788330 4.918170
147
upperback -2.807580 -2.761130 0.484503
rfoot -19.511499 -13.654900
lradius 47.279900
lthumb -5.253280 54.395802
rradius 47.058201
lwrist -6.620310
rhand -40.964001 -10.508700
rhumerus -43.330898 1.377530 -44.815102
lowerneck -5.570910 3.711450 10.075300
lhand -32.004700 24.481001
ltibia 33.480999
head 3.515950 2.491780 -5.299630
rwrist -8.396470
lfingers 7.125020
rtoes -28.217400
lowerback 2.845750 -2.260710 6.177320
rfingers 7.125020
lclavicle 0.000000 0.000000
upperneck 6.710540 5.346160 -12.756300
rfemur -21.845699 -21.060101 -6.902750
thorax -4.784720 -1.597230 -2.753870
rclavicle 0.000000 0.000000
rtibia 50.577499
lfoot 5.859720 20.916901
lhumerus -32.420601 -10.607500 85.226799
rthumb -13.897000 319.976013
root 13.456200 16.535500 31.948900 192.714996 -2.762600 176.630997
ltoes 2.712860
lfemur -26.023001 11.338900 10.859500
148
upperback -2.525310 0.739710 0.032850
rfoot -3.025610 -36.040600
lradius 52.591599
lthumb -7.782370 59.251301
rradius 36.274101
lwrist -5.556550
rhand -31.197300 -7.001070
rhumerus -51.523201 -3.692500 -64.894096
lowerneck -11.758500 -4.052900 2.621500
lhand -34.624500 29.414499
ltibia 52.546700
head 4.798740 -2.831210 -1.592180
rwrist 0.698727
lfingers 7.125020
rtoes -4.571940
lowerback 3.958080 0.469422 2.246000
rfingers 7.125020
lclavicle 0.000000 0.000000
upperneck 10.076200 -5.628630 -2.428300
rfemur -1.243150 3.959510 -8.988450
thorax -4.804140 0.282522 -1.284230
rclavicle 0.000000 0.000000
rtibia 36.176998
lfoot -17.552401 0.236697
lhumerus -38.481602 -11.938600 79.727898
rthumb -4.473640 323.066010
root 9.464010 16.567699 30.539900 191.714996 -15.362100 177.320999
ltoes -19.745501
lfemur -34.810299 16.744499 0.567671
149
upperback -2.046960 -2.140860 -0.200524
rfoot -7.093710 -25.586000
lradius 39.325901
lthumb -0.408953 55.578602
rradius 29.261101
lwrist -12.548400
rhand -54.053001 28.336100
rhumerus -58.778400 -9.463730 -73.297401
lowerneck -7.083440 -1.157110 4.320270
lhand -26.988501 25.599300
ltibia 56.182400
head 1.937470 -0.946942 -1.062180
rwrist 6.397390
lfingers 7.125020
rtoes -36.109100
lowerback 5.828180 -1.412460 -2.880710
rfingers 7.125020
lclavicle 0.000000 0.000000
upperneck 2.447210 -1.925600 -0.779499
rfemur -47.908199 -24.709900 16.854300
thorax -5.300040 -0.971751 1.627690
rclavicle 0.000000 0.000000
rtibia 83.935898
lfoot -28.834400 5.192510
lhumerus -26.349600 -11.865400 67.290901
rthumb -26.474001 360.165009
root 7.150520 16.878401 28.624701 194.307999 -11.140900 179.932007
ltoes -20.134300
lfemur -28.623400 18.766199 -2.561670
150
upperback -1.720880 -5.778070 -0.691746
rfoot -8.814240 -4.580310
lradius 32.730301
lthumb 3.096640 51.371300
rradius 25.164600
lwrist -14.269000
rhand -45.505901 22.613501
rhumerus -65.498901 -7.217710 -49.879601
lowerneck -4.525250 7.265340 8.291330
lhand -23.358801 21.414000
ltibia 37.317799
head 1.779330 4.645070 -3.252280
rwrist 2.710230
lfingers 7.125020
rtoes -32.000500
lowerback 6.069470 -4.162790 -2.613420
rfingers 7.125020
lclavicle 0.000000 -0.000000
upperneck 0.643928 9.407150 -6.529190
rfemur -67.822998 -16.440901 25.782200
thorax -4.995540 -2.778090 1.324050
rclavicle 0.000000 -0.000000
rtibia 51.486301
lfoot -26.827101 11.713300
lhumerus -9.012130 -16.572599 67.891701
rthumb -18.270399 353.451996
root 6.180590 16.920500 24.870100 192.951996 3.679200 177.914993
ltoes -30.995199
lfemur 1.901580 14.780900 -6.087310
151
upperback -3.124780 -4.718740 0.636270
rfoot -13.064100 -1.636000
lradius 17.799900
lthumb 7.885000 47.316002
rradius 18.062901
lwrist -30.207199
rhand -2.877100 45.785099
rhumerus -41.789200 -8.634170 -47.495998
lowerneck -3.212820 10.881800 11.895900
lhand -18.399300 17.483000
ltibia 47.114201
head 2.222310 7.185700 -5.605050
rwrist 16.251801
lfingers 7.125020
rtoes -4.407290
lowerback 6.021600 -3.630570 0.857016
rfingers 7.125020
lclavicle 0.000000 0.000000
upperneck -0.863493 14.513400 -14.435400
rfemur -55.641201 -5.160890 23.015200
thorax -6.651500 -2.333810 0.735828
rclavicle 0.000000 0.000000
rtibia 58.938801
lfoot -3.386010 8.378530
lhumerus -11.596000 -5.662490 55.692600
rthumb 22.831900 377.117004
root 7.131320 17.687901 19.432100 193.972000 11.819400 180.317993
ltoes -17.056601
lfemur 2.224690 8.711920 -10.136300
152
upperback -3.436390 3.359230 0.380162
rfoot -27.771299 -11.275900
lradius 19.226200
lthumb 1.135590 60.424198
rradius 24.387100
lwrist -23.916300
rhand -33.706799 -27.359800
rhumerus -8.891400 0.754081 -60.922798
lowerneck -4.415050 3.505360 7.506210
lhand -25.389299 30.447399
ltibia 55.595699
head 1.235860 1.942260 -4.679650
rwrist 15.625400
lfingers 7.125020
rtoes -11.329400
lowerback 6.005920 2.050810 5.678350
rfingers 7.125020
lclavicle 0.000000 -0.000000
upperneck 0.239579 4.342280 -11.861900
rfemur -35.252201 -7.244590 27.189100
thorax -6.683060 1.437610 -3.172220
rclavicle 0.000000 -0.000000
rtibia 53.804699
lfoot -16.536501 13.994000
lhumerus -36.925800 6.705450 34.955200
rthumb -6.896570 302.773010
root 7.829210 18.168100 14.765900 195.251007 1.972550 184.800995
ltoes -3.140670
lfemur -54.286999 9.984490 -14.686200
153
upperback -4.493160 9.818180 -0.677722
rfoot 13.083500 -4.585610
lradius 17.655001
lthumb 0.044888 66.384300
rradius 33.379700
lwrist -19.731199
rhand -30.597401 -55.404400
rhumerus -14.810500 6.816470 -71.998703
lowerneck -2.345570 4.188540 11.565600
lhand -26.518600 36.404598
ltibia 29.391001
head 2.916840 2.754830 -4.506250
rwrist 12.088600
lfingers 7.125020
rtoes -23.345301
lowerback 0.934152 7.353650 2.966590
rfingers 7.125020
lclavicle -0.000000 0.000000
upperneck 6.563730 5.606640 -9.293780
rfemur 5.448670 -5.650330 29.612000
thorax -4.558600 4.714130 -2.753550
rclavicle -0.000000 0.000000
rtibia 26.880301
lfoot 4.365140 35.799999
lhumerus -59.446098 14.414200 12.876900
rthumb -3.894320 274.651001
root 7.754260 19.662901 8.298590 184.675003 -15.983800 190.966995
ltoes 8.264950
lfemur -36.674000 -9.383140 -14.999200
